<defs>
<font horiz-adv-x="543" ><font-face
    font-family="molot"
    units-per-em="1000"
    panose-1="2 0 5 6 0 0 0 2 0 4"
    ascent="945"
    descent="-200"
    alphabetic="0" />
<missing-glyph horiz-adv-x="490" />
<glyph unicode=" " glyph-name="space" horiz-adv-x="490" />
<glyph unicode="!" glyph-name="exclam" horiz-adv-x="300" d="M52 175H249V0H52V175ZM63 248L30 613V700H270V613L237 248H63Z" />
<glyph unicode="#" glyph-name="numbersign" horiz-adv-x="740" d="M301 419V280H439V419H301ZM159 0V139H20V280H159V419H20V560H159V700H301V560H439V700H581V560H720V419H581V280H720V139H581V0H439V139H301V0H159Z" />
<glyph unicode="$" glyph-name="dollar" horiz-adv-x="508" d="M79 348Q44 371 32 396T20 466V612Q20 650 44 675T107 700H186V775H322V700H488V613L453 524H239V492L429 365Q464 342 476 316T488 246V87Q488 49 464 25T400 0H322V-74H186V0H20V175H269V221L79 348Z" />
<glyph unicode="&amp;" glyph-name="ampersand" horiz-adv-x="594" d="M305 271H248V175H305V271ZM117 0Q79 0 55 24T30 88V265Q30 302 56 325T119 349V368Q82 368 56 391T30 453V612Q30 650 54 675T117 700H524V613L490 525H248V446H584V271H524V88Q524 49 500
25T436 0H117Z" />
<glyph unicode="(" glyph-name="parenleft" horiz-adv-x="251" d="M251 -53V-186H239Q133 -186 87 -138T40 16V683Q40 789 86 836T239 884H251V751H239Q206 751 194 736T181 685V13Q181 -22 193 -37T239 -53H251Z" />
<glyph unicode=")" glyph-name="parenright" horiz-adv-x="251" d="M0 -53H12Q45 -53 57 -38T70 13V685Q70 720 58 735T12 751H0V884H12Q118 884 164 837T211 683V16Q211 -90 165 -138T12 -186H0V-53Z" />
<glyph unicode="*" glyph-name="asterisk" horiz-adv-x="451" d="M174 576V684H277V576L379 610L411 513L308 479L371 392L289 332L226 419L162 332L80 392L143 479L40 513L72 610L174 576Z" />
<glyph unicode="+" glyph-name="plus" horiz-adv-x="534" d="M20 420H196V596H337V420H514V279H337V102H196V279H20V420Z" />
<glyph unicode="," glyph-name="comma" horiz-adv-x="277" d="M237 31L196 -75H117V0H40V175H237V31Z" />
<glyph unicode="-" glyph-name="hyphen" horiz-adv-x="534" d="M20 420H514V279H20V420Z" />
<glyph unicode="." glyph-name="period" horiz-adv-x="277" d="M40 175H237V0H40V175Z" />
<glyph unicode="/" glyph-name="slash" horiz-adv-x="525" d="M525 662L141 0H0V38L385 700H525V662Z" />
<glyph unicode="0" glyph-name="zero" horiz-adv-x="574" d="M315 524H258V174H315V524ZM446 0H127Q89 0 65 24T40 87V613Q40 651 64 675T127 700H446Q484 700 509 676T534 613V87Q534 49 510 25T446 0Z" />
<glyph unicode="1" glyph-name="one" horiz-adv-x="299" d="M259 0H40V657L150 700H259V0Z" />
<glyph unicode="2" glyph-name="two" horiz-adv-x="534" d="M455 334L239 212V174H514V0H20V232Q20 277 32 303T79 351L296 487V524H55L20 613V700H427Q465 700 489 676T514 613V453Q514 407 503 381T455 334Z" />
<glyph unicode="3" glyph-name="three" horiz-adv-x="554" d="M514 329V87Q514 49 490 25T427 0H20V174H296V271H138V380L254 487V524H55L20 613V700H510V533L425 420Q467 417 490 394T514 329Z" />
<glyph unicode="4" glyph-name="four" horiz-adv-x="588" d="M143 700H337V613L243 344V307H329V434H548V0H329V132H20V346L143 700Z" />
<glyph unicode="5" glyph-name="five" horiz-adv-x="564" d="M40 700H530V613L496 524H259V445H447Q485 445 509 421T534 358V87Q534 49 510 25T447 0H40V174H316V271H40V700Z" />
<glyph unicode="6" glyph-name="six" horiz-adv-x="564" d="M315 174V271H258V174H315ZM446 445Q485 445 509 421T534 358V87Q534 49 510 25T446 0H127Q89 0 65 24T40 87V613Q40 651 64 675T127 700H525V613L491 524H258V445H446Z" />
<glyph unicode="7" glyph-name="seven" horiz-adv-x="460" d="M216 500V524H10V700H440V520L271 0H68V56L216 500Z" />
<glyph unicode="8" glyph-name="eight" horiz-adv-x="574" d="M259 271V174H316V271H259ZM259 524V445H316V524H259ZM128 0Q89 0 65 24T40 87V264Q40 301 66 324T130 348V368Q93 368 67 391T40 452V613Q40 651 65 675T128 700H447Q485 700 509 676T534 613V452Q534
415 508 392T445 368V348Q482 348 508 325T534 264V87Q534 49 510 25T447 0H128Z" />
<glyph unicode="9" glyph-name="nine" horiz-adv-x="564" d="M248 524V428H305V524H248ZM117 253Q79 253 55 277T30 341V613Q30 651 54 675T117 700H436Q475 700 499 676T524 613V87Q524 49 500 25T436 0H55V174H305V253H117Z" />
<glyph unicode=":" glyph-name="colon" horiz-adv-x="277" d="M40 175H237V0H40V175ZM40 700H237V524H40V700Z" />
<glyph unicode=";" glyph-name="semicolon" horiz-adv-x="277" d="M237 31L196 -75H116V0H40V175H237V31ZM40 700H237V524H40V700Z" />
<glyph unicode="&lt;" glyph-name="less" horiz-adv-x="406" d="M366 501L176 335L366 169V122H223L20 303V366L223 547H366V501Z" />
<glyph unicode="=" glyph-name="equal" horiz-adv-x="574" d="M40 298H534V156H40V298ZM40 542H534V401H40V542Z" />
<glyph unicode="&gt;" glyph-name="greater" horiz-adv-x="407" d="M40 501V547H184L387 366V303L184 122H40V169L231 335L40 501Z" />
<glyph unicode="?" glyph-name="question" horiz-adv-x="524" d="M445 356L337 295V248H140V306Q140 350 152 375T199 425L285 487V524H44L10 613V700H416Q455 700 479 676T504 613V475Q504 430 492 404T445 356ZM140 175H337V0H140V175Z" />
<glyph unicode="@" glyph-name="at" horiz-adv-x="711" d="M398 374V326H529V374H398ZM529 567H182V133H671V0H126Q86 0 63 21T40 105V594Q40 656 63 678T126 700H584Q625 700 648 678T671 594V193H321Q286 193 273 204T260 250V450Q260 484 273 495T321 506H529V567Z" />
<glyph unicode="A" glyph-name="A" horiz-adv-x="600" d="M268 316H332L312 524H288L268 316ZM118 700H482L580 87V0H361L348 141H252L238 0H20V87L118 700Z" />
<glyph unicode="B" glyph-name="B" horiz-adv-x="595" d="M259 271V175H346V271H259ZM346 446V524H259V446H346ZM477 0H40V700H477Q516 700 540 676T565 613V452Q565 415 539 392T475 368V349Q512 349 538 326T565 264V87Q565 49 541 25T477 0Z" />
<glyph unicode="C" glyph-name="C" horiz-adv-x="528" d="M128 700H508V613L474 524H259V175H508V0H128Q89 0 65 24T40 87V613Q40 651 64 675T128 700Z" />
<glyph unicode="D" glyph-name="D" horiz-adv-x="604" d="M258 524V175H346V524H258ZM477 0H40V700H477Q515 700 539 676T564 613V87Q564 49 540 25T477 0Z" />
<glyph unicode="E" glyph-name="E" horiz-adv-x="528" d="M508 0H40V700H508V613L473 524H258V446H473V271H258V175H508V0Z" />
<glyph unicode="F" glyph-name="F" horiz-adv-x="518" d="M259 236V0H40V700H508V613L474 524H259V411H474V236H259Z" />
<glyph unicode="G" glyph-name="G" horiz-adv-x="605" d="M128 700H561V613L526 524H259V175H346V410H565V0H128Q89 0 65 24T40 87V613Q40 651 64 675T128 700Z" />
<glyph unicode="H" glyph-name="H" horiz-adv-x="604" d="M258 446H346V700H564V0H346V271H258V0H40V700H258V446Z" />
<glyph unicode="I" glyph-name="I" horiz-adv-x="298" d="M258 0H40V700H258V0Z" />
<glyph unicode="J" glyph-name="J" horiz-adv-x="395" d="M268 0H10V175H137V700H355V87Q355 49 331 25T268 0Z" />
<glyph unicode="K" glyph-name="K" horiz-adv-x="595" d="M298 446L350 700H558V613L477 370L575 87V0H357L298 271H258V0H40V700H258V446H298Z" />
<glyph unicode="L" glyph-name="L" horiz-adv-x="488" d="M40 0V700H258V175H478V0H40Z" />
<glyph unicode="M" glyph-name="M" horiz-adv-x="793" d="M305 0L251 336H234V0H20V87L92 700H336L389 424H404L457 700H702L773 87V0H560V336H542L488 0H305Z" />
<glyph unicode="N" glyph-name="N" horiz-adv-x="605" d="M374 376H392L363 613V700H565V0H333L230 323H213L241 87V0H40V700H272L374 376Z" />
<glyph unicode="O" glyph-name="O" horiz-adv-x="605" d="M346 524H259V175H346V524ZM477 0H128Q89 0 65 24T40 87V613Q40 651 64 675T128 700H477Q516 700 540 676T565 613V87Q565 49 541 25T477 0Z" />
<glyph unicode="P" glyph-name="P" horiz-adv-x="595" d="M259 524V393H346V524H259ZM477 218H259V0H40V700H477Q516 700 540 676T565 613V306Q565 268 541 243T477 218Z" />
<glyph unicode="Q" glyph-name="Q" horiz-adv-x="605" d="M346 524H259V175H346V524ZM477 0H386L430 -68V-155H264L231 0H128Q89 0 65 24T40 87V613Q40 651 64 675T128 700H477Q516 700 540 676T565 613V87Q565 49 541 25T477 0Z" />
<glyph unicode="R" glyph-name="R" horiz-adv-x="596" d="M346 524H259V393H346V524ZM40 700H478Q516 700 540 676T565 613V338Q565 313 548 290T507 259L576 87V0H362L303 218H259V0H40V700Z" />
<glyph unicode="S" glyph-name="S" horiz-adv-x="508" d="M79 347Q44 371 32 396T20 466V613Q20 651 44 675T108 700H488V614L454 524H239V492L429 365Q464 342 476 316T488 246V87Q488 49 464 25T401 0H20V175H269V221L79 347Z" />
<glyph unicode="T" glyph-name="T" horiz-adv-x="510" d="M141 524H10V700H500V613L465 524H360V0H141V524Z" />
<glyph unicode="U" glyph-name="U" horiz-adv-x="605" d="M346 700H565V0H128Q89 0 65 24T40 87V700H259V175H346V700Z" />
<glyph unicode="V" glyph-name="V" horiz-adv-x="571" d="M121 0L10 643V700H228L273 175H298L343 700H561V643L450 0H121Z" />
<glyph unicode="W" glyph-name="W" horiz-adv-x="793" d="M305 700H488L542 363H560V700H773V613L702 0H457L404 275H389L336 0H92L20 613V700H234V363H251L305 700Z" />
<glyph unicode="X" glyph-name="X" horiz-adv-x="580" d="M299 446L345 700H553V606L472 370L570 83V0H351L299 271H281L229 0H10V83L108 370L27 606V700H235L281 446H299Z" />
<glyph unicode="Y" glyph-name="Y" horiz-adv-x="580" d="M181 191L10 613V700H229L282 428H298L352 700H570V613L399 191V0H181V191Z" />
<glyph unicode="Z" glyph-name="Z" horiz-adv-x="535" d="M20 0V179L256 500V524H54L20 613V700H506V520L269 199V175H515V0H20Z" />
<glyph unicode="[" glyph-name="bracketleft" horiz-adv-x="251" d="M181 751V-53H251V-186H40V884H251V751H181Z" />
<glyph unicode="\" glyph-name="backslash" horiz-adv-x="525" d="M0 662V700H141L525 38V0H385L0 662Z" />
<glyph unicode="]" glyph-name="bracketright" horiz-adv-x="252" d="M70 751H0V884H212V-186H0V-53H70V751Z" />
<glyph unicode="_" glyph-name="underscore" horiz-adv-x="493" d="M0 -59H493V-200H0V-59Z" />
<glyph unicode="a" glyph-name="a" horiz-adv-x="600" d="M268 316H332L312 524H288L268 316ZM118 700H482L580 87V0H361L348 141H252L238 0H20V87L118 700Z" />
<glyph unicode="b" glyph-name="b" horiz-adv-x="595" d="M259 271V175H346V271H259ZM346 446V524H259V446H346ZM477 0H40V700H477Q516 700 540 676T565 613V452Q565 415 539 392T475 368V349Q512 349 538 326T565 264V87Q565 49 541 25T477 0Z" />
<glyph unicode="c" glyph-name="c" horiz-adv-x="528" d="M128 700H508V613L474 524H259V175H508V0H128Q89 0 65 24T40 87V613Q40 651 64 675T128 700Z" />
<glyph unicode="d" glyph-name="d" horiz-adv-x="604" d="M258 524V175H346V524H258ZM477 0H40V700H477Q515 700 539 676T564 613V87Q564 49 540 25T477 0Z" />
<glyph unicode="e" glyph-name="e" horiz-adv-x="528" d="M508 0H40V700H508V613L473 524H258V446H473V271H258V175H508V0Z" />
<glyph unicode="f" glyph-name="f" horiz-adv-x="518" d="M259 236V0H40V700H508V613L474 524H259V411H474V236H259Z" />
<glyph unicode="g" glyph-name="g" horiz-adv-x="605" d="M128 700H561V613L526 524H259V175H346V410H565V0H128Q89 0 65 24T40 87V613Q40 651 64 675T128 700Z" />
<glyph unicode="h" glyph-name="h" horiz-adv-x="604" d="M258 446H346V700H564V0H346V271H258V0H40V700H258V446Z" />
<glyph unicode="i" glyph-name="i" horiz-adv-x="298" d="M258 0H40V700H258V0Z" />
<glyph unicode="j" glyph-name="j" horiz-adv-x="395" d="M268 0H10V175H137V700H355V87Q355 49 331 25T268 0Z" />
<glyph unicode="k" glyph-name="k" horiz-adv-x="595" d="M298 446L350 700H558V613L477 370L575 87V0H357L298 271H258V0H40V700H258V446H298Z" />
<glyph unicode="l" glyph-name="l" horiz-adv-x="488" d="M40 0V700H258V175H478V0H40Z" />
<glyph unicode="m" glyph-name="m" horiz-adv-x="793" d="M305 0L251 336H234V0H20V87L92 700H336L389 424H404L457 700H702L773 87V0H560V336H542L488 0H305Z" />
<glyph unicode="n" glyph-name="n" horiz-adv-x="605" d="M374 376H392L363 613V700H565V0H333L230 323H213L241 87V0H40V700H272L374 376Z" />
<glyph unicode="o" glyph-name="o" horiz-adv-x="605" d="M346 524H259V175H346V524ZM477 0H128Q89 0 65 24T40 87V613Q40 651 64 675T128 700H477Q516 700 540 676T565 613V87Q565 49 541 25T477 0Z" />
<glyph unicode="p" glyph-name="p" horiz-adv-x="595" d="M259 524V393H346V524H259ZM477 218H259V0H40V700H477Q516 700 540 676T565 613V306Q565 268 541 243T477 218Z" />
<glyph unicode="q" glyph-name="q" horiz-adv-x="605" d="M346 524H259V175H346V524ZM477 0H386L430 -68V-155H264L231 0H128Q89 0 65 24T40 87V613Q40 651 64 675T128 700H477Q516 700 540 676T565 613V87Q565 49 541 25T477 0Z" />
<glyph unicode="r" glyph-name="r" horiz-adv-x="596" d="M346 524H259V393H346V524ZM40 700H478Q516 700 540 676T565 613V338Q565 313 548 290T507 259L576 87V0H362L303 218H259V0H40V700Z" />
<glyph unicode="s" glyph-name="s" horiz-adv-x="508" d="M79 347Q44 371 32 396T20 466V613Q20 651 44 675T108 700H488V614L454 524H239V492L429 365Q464 342 476 316T488 246V87Q488 49 464 25T401 0H20V175H269V221L79 347Z" />
<glyph unicode="t" glyph-name="t" horiz-adv-x="510" d="M141 524H10V700H500V613L465 524H360V0H141V524Z" />
<glyph unicode="u" glyph-name="u" horiz-adv-x="605" d="M346 700H565V0H128Q89 0 65 24T40 87V700H259V175H346V700Z" />
<glyph unicode="v" glyph-name="v" horiz-adv-x="571" d="M121 0L10 643V700H228L273 175H298L343 700H561V643L450 0H121Z" />
<glyph unicode="w" glyph-name="w" horiz-adv-x="793" d="M305 700H488L542 363H560V700H773V613L702 0H457L404 275H389L336 0H92L20 613V700H234V363H251L305 700Z" />
<glyph unicode="x" glyph-name="x" horiz-adv-x="580" d="M299 446L345 700H553V606L472 370L570 83V0H351L299 271H281L229 0H10V83L108 370L27 606V700H235L281 446H299Z" />
<glyph unicode="y" glyph-name="y" horiz-adv-x="580" d="M181 191L10 613V700H229L282 428H298L352 700H570V613L399 191V0H181V191Z" />
<glyph unicode="z" glyph-name="z" horiz-adv-x="535" d="M20 0V179L256 500V524H54L20 613V700H506V520L269 199V175H515V0H20Z" />
<glyph unicode="&#xab;" glyph-name="guillemotleft" horiz-adv-x="499" d="M459 499L365 335L459 170V124H342L235 303V366L342 545H459V499ZM244 499L149 335L244 170V124H126L20 303V366L126 545H244V499Z" />
<glyph unicode="b;" glyph-name="guillemotright" horiz-adv-x="500" d="M40 499V545H157L264 366V303L157 124H40V170L134 335L40 499ZM256 499V545H373L480 366V303L373 124H256V170L350 335L256 499Z" />
</font>
</defs>
</svg>
